<?xml version="1.0" encoding="UTF-8"?>
<svg width="600px" height="700px" viewBox="0 0 600 700" version="1.1" xmlns="http://www.w3.org/2000/svg" xmlns:xlink="http://www.w3.org/1999/xlink">
    <title>Combined Shape</title>
    <g id="Symbols" stroke="none" stroke-width="1" fill="none" fill-rule="evenodd">
        <g id="Logo-Final" fill="#000000" fill-rule="nonzero">
            <path d="M395,350 C435.040644,350 471.290644,333.770322 497.530483,307.530483 C523.770322,281.290644 540,245.040644 540,205 C540,164.959356 523.770322,128.709356 497.530483,102.469517 C471.290644,76.2296778 435.040644,60 395,60 L395,60 L60,60 L60,700 L0,700 L0,0 L395,2.27373675e-12 L398.39005,0.027464143 C510.044828,1.8377762 600,92.91381 600,205 C600,318.218374 508.218374,410.268954 395,410.268954 L395,410.268954 L395,410.018 L380.451426,410.019949 L600,700 L520.100969,700 L300,410.268954 L300,350.019949 L395,350.011 Z" id="Combined-Shape"></path>
        </g>
    </g>
</svg>