<?xml version="1.0" encoding="UTF-8"?>
<svg width="600px" height="700px" viewBox="0 0 600 700" version="1.1" xmlns="http://www.w3.org/2000/svg" xmlns:xlink="http://www.w3.org/1999/xlink">
    <title>Combined Shape</title>
    <g id="Symbols" stroke="none" stroke-width="1" fill="none" fill-rule="evenodd">
        <g id="Logo-Final" transform="translate(-195.000000, 0.000000)" fill="#000000" fill-rule="nonzero">
            <path d="M195,349.980052 C195,158.624293 328.835744,3.13748786 494.956267,0.0468873278 L500,2.27373675e-12 L795,2.27373675e-12 L795,59.9965804 L500,59.9965804 C433.175024,59.9965804 373.18461,91.8730943 329.567002,141.923234 C283.163938,195.169617 255,268.867811 255,349.980052 C255,431.092293 283.163938,504.790487 329.567002,558.03687 C373.18461,608.08701 433.175024,639.963524 500,639.963524 L500,640.00342 L795,640.00342 L795,700 L500,700 L500,699.960104 C331.553151,699.960104 195,543.268698 195,349.980052 Z" id="Combined-Shape"></path>
        </g>
    </g>
</svg>